<?xml version="1.0" standalone="no"?>
<!DOCTYPE svg PUBLIC "-//W3C//DTD SVG 20010904//EN"
 "http://www.w3.org/TR/2001/REC-SVG-20010904/DTD/svg10.dtd">
<svg version="1.0" xmlns="http://www.w3.org/2000/svg"
 width="1803.000000pt" height="1803.000000pt" viewBox="0 0 1803.000000 1803.000000"
 preserveAspectRatio="xMidYMid meet">
<metadata>
Created by potrace 1.14, written by Peter Selinger 2001-2017
</metadata>
<g transform="translate(0.000000,1803.000000) scale(0.100000,-0.100000)"
fill="#000000" stroke="none">
<path d="M8676 16490 c-1513 -70 -2941 -580 -4148 -1482 -516 -386 -1006 -866
-1409 -1378 -470 -597 -857 -1287 -1122 -2000 -60 -161 -143 -414 -182 -552
l-16 -58 -900 0 -899 0 0 -2020 0 -2020 904 0 905 0 26 -87 c652 -2193 2278
-3974 4403 -4822 1257 -502 2662 -651 4007 -425 2561 430 4718 2168 5693 4584
71 178 204 560 237 683 l18 67 913 0 914 0 0 2020 0 2020 -908 0 -908 0 -13
53 c-26 101 -144 454 -208 622 -583 1524 -1665 2828 -3063 3692 -1025 634
-2215 1014 -3420 1092 -236 16 -613 20 -824 11z m829 -261 c597 -37 1229 -162
1804 -355 2125 -715 3783 -2389 4497 -4541 59 -177 164 -549 164 -580 0 -11
163 -13 885 -13 l885 0 0 -1740 0 -1740 -904 0 -904 0 -16 -64 c-60 -240 -202
-651 -322 -934 -849 -1994 -2547 -3498 -4629 -4097 -875 -252 -1781 -332
-2700 -240 -192 20 -434 57 -653 100 -1723 344 -3242 1303 -4302 2717 -431
574 -762 1180 -1012 1848 -64 171 -167 492 -199 618 l-13 52 -903 0 -903 0 0
1740 0 1740 885 0 884 0 11 43 c198 776 504 1488 920 2137 693 1083 1691 1975
2868 2565 1147 574 2378 824 3657 744z"/>
<path d="M8715 15933 c-272 -13 -740 -64 -777 -84 -32 -17 -58 -71 -58 -120 0
-53 50 -160 103 -221 l32 -38 105 54 c324 167 743 320 1042 382 52 11 83 21
75 26 -11 7 -384 8 -522 1z"/>
<path d="M9795 15834 c-514 -40 -1005 -181 -1499 -432 l-130 -65 35 -29 c98
-82 325 -223 550 -341 127 -67 349 -172 414 -197 21 -8 35 6 153 153 342 426
649 697 945 832 48 22 87 43 87 46 0 23 -385 46 -555 33z"/>
<path d="M7580 15786 c-575 -130 -1057 -303 -1580 -567 -465 -234 -868 -494
-1245 -803 l-30 -24 50 9 c119 23 407 50 647 60 278 13 692 2 1038 -26 l174
-14 101 97 c325 315 730 629 1072 831 40 24 71 46 69 50 -2 3 -24 36 -49 73
-25 36 -53 90 -63 120 -19 56 -24 154 -11 201 9 34 12 34 -173 -7z"/>
<path d="M10470 15690 c-111 -30 -299 -128 -423 -221 -195 -146 -427 -387
-636 -659 -44 -58 -77 -108 -73 -111 16 -15 344 -137 562 -210 513 -170 1080
-310 1535 -378 77 -12 150 -23 163 -25 27 -4 28 6 7 147 -40 268 -118 578
-194 773 -142 365 -314 574 -553 672 -88 36 -276 42 -388 12z"/>
<path d="M11297 15483 c71 -100 181 -325 232 -478 74 -220 135 -502 170 -778
10 -81 20 -149 22 -152 25 -24 667 -44 854 -26 128 13 315 47 328 61 10 9 -77
142 -191 295 -329 437 -748 810 -1168 1037 -56 30 -279 118 -299 118 -2 0 21
-35 52 -77z"/>
<path d="M7884 15167 c-300 -191 -605 -430 -879 -689 l-90 -85 65 -8 c360 -39
939 -132 1433 -231 181 -36 330 -64 331 -62 1 1 36 57 76 123 41 66 121 189
178 274 57 84 102 155 100 157 -2 1 -53 24 -113 50 -356 151 -686 336 -889
499 -38 30 -72 55 -75 55 -4 0 -65 -37 -137 -83z"/>
<path d="M12200 15125 c261 -233 524 -542 732 -862 l81 -123 56 31 c129 69
191 167 173 271 -6 34 -20 47 -142 139 -251 188 -583 398 -865 549 l-100 53
65 -58z"/>
<path d="M9146 14432 c-57 -86 -134 -206 -170 -267 -58 -96 -64 -111 -49 -117
10 -4 137 -35 283 -69 489 -113 1108 -283 1644 -449 180 -56 749 -243 815
-268 12 -5 13 22 8 179 -7 179 -32 506 -43 561 -5 23 -12 28 -47 32 -23 3
-116 15 -207 26 -641 79 -1478 283 -2063 504 l-68 25 -103 -157z"/>
<path d="M13270 14394 c0 -102 -64 -191 -182 -250 -29 -14 -54 -28 -56 -29 -2
-2 26 -54 61 -116 238 -420 451 -948 577 -1433 22 -82 40 -150 42 -151 2 -2
63 -33 136 -69 810 -405 1450 -862 1678 -1201 19 -27 34 -46 34 -42 0 14 -82
252 -135 392 -425 1121 -1150 2132 -2072 2889 l-83 68 0 -58z"/>
<path d="M5415 14213 c-512 -30 -868 -99 -1095 -213 -97 -49 -232 -184 -251
-252 -54 -198 212 -537 686 -873 188 -134 490 -323 500 -313 3 3 46 76 95 162
277 484 629 973 1004 1396 36 41 66 77 66 81 0 15 -798 25 -1005 12z"/>
<path d="M6608 14071 c-253 -281 -471 -561 -693 -890 -127 -188 -326 -512
-413 -672 l-41 -76 192 -101 c471 -249 1078 -518 1750 -777 l138 -54 10 27 c6
15 38 99 71 187 267 715 634 1519 946 2072 l80 142 -27 5 c-54 12 -384 67
-575 96 -362 56 -908 121 -1243 148 l-93 8 -102 -115z"/>
<path d="M12845 14059 c-187 -49 -613 -69 -993 -46 l-134 8 6 -28 c9 -47 27
-337 34 -556 l7 -209 275 -103 c561 -209 1000 -393 1483 -619 53 -25 97 -42
97 -37 0 21 -84 303 -134 448 -96 278 -225 581 -343 803 -94 177 -204 360
-216 359 -7 -1 -43 -10 -82 -20z"/>
<path d="M8759 13788 c-90 -163 -343 -666 -428 -853 -107 -234 -273 -623 -358
-840 -100 -254 -243 -637 -243 -651 0 -21 726 -268 1245 -424 274 -82 545
-159 834 -234 l173 -46 757 0 757 0 12 83 c105 707 163 1372 178 2049 l7 296
-159 51 c-737 233 -1622 460 -2419 620 -137 28 -260 53 -272 56 -19 4 -30 -9
-84 -107z"/>
<path d="M3703 13353 c-428 -537 -751 -1091 -1005 -1723 -55 -138 -128 -337
-128 -350 0 -5 29 2 64 15 198 74 523 131 891 155 201 13 696 13 920 0 94 -5
196 -11 228 -12 l58 -3 53 130 c77 187 156 365 252 564 46 96 83 175 82 176
-2 1 -59 35 -128 75 -69 40 -192 118 -274 172 -483 322 -769 609 -881 885
l-22 54 -110 -138z"/>
<path d="M11760 13044 c0 -491 -67 -1285 -165 -1971 -25 -171 -45 -316 -45
-322 0 -8 326 -11 1166 -11 l1165 0 -6 98 c-33 511 -89 924 -181 1330 -25 108
-47 209 -50 223 -7 30 -14 33 -274 149 -409 181 -901 369 -1452 555 l-158 54
0 -105z"/>
<path d="M13725 12353 c19 -76 77 -365 99 -498 52 -310 91 -661 101 -922 4
-81 8 -158 11 -170 l4 -23 829 0 c921 0 841 -7 841 68 -1 322 -434 763 -1172
1195 -179 105 -473 262 -616 328 l-104 49 7 -27z"/>
<path d="M5269 12055 c-123 -256 -285 -632 -277 -640 2 -2 73 -11 158 -19 647
-67 1471 -196 2106 -330 65 -14 121 -22 125 -18 15 16 81 234 73 241 -5 4
-108 43 -229 86 -621 219 -1148 440 -1672 700 l-222 110 -62 -130z"/>
<path d="M7614 11118 c-20 -60 -32 -113 -28 -117 5 -4 106 -29 224 -55 118
-26 361 -83 539 -127 l325 -79 325 2 325 3 -190 49 c-392 101 -941 260 -1361
394 l-122 39 -37 -109z"/>
<path d="M3632 11200 c-404 -24 -719 -80 -931 -166 -138 -56 -131 -46 -131
-179 l0 -115 958 0 957 0 76 225 c42 124 73 228 69 230 -16 10 -854 14 -998 5z"/>
<path d="M4885 11148 c-19 -48 -135 -388 -135 -399 0 -5 519 -8 1267 -7 l1266
3 20 58 c10 32 17 60 16 61 -13 12 -919 153 -1289 200 -339 44 -1028 115
-1123 116 -4 0 -14 -15 -22 -32z"/>
<path d="M7511 10807 c-5 -12 -11 -32 -15 -44 l-7 -23 233 1 233 1 -185 37
c-102 21 -200 40 -218 44 -28 6 -34 3 -41 -16z"/>
<path d="M2645 10276 c-158 -31 -279 -93 -384 -196 -328 -322 -239 -864 175
-1066 116 -56 210 -76 354 -76 150 0 241 21 359 82 277 144 419 436 356 735
-49 235 -245 434 -495 505 -97 27 -270 35 -365 16z m250 -271 c123 -32 212
-106 269 -225 29 -60 31 -73 31 -171 0 -101 -1 -108 -38 -181 -164 -334 -668
-283 -761 77 -81 310 188 580 499 500z"/>
<path d="M5588 10279 c-184 -21 -310 -103 -375 -246 -22 -48 -27 -72 -27 -143
-1 -154 52 -246 181 -312 78 -41 117 -54 301 -103 198 -52 242 -81 242 -156 0
-79 -68 -119 -202 -119 -120 0 -247 43 -352 121 -22 16 -43 29 -46 29 -7 0
-180 -195 -180 -203 0 -9 118 -86 177 -116 158 -79 396 -112 560 -78 155 33
278 125 323 242 34 89 34 220 -2 295 -60 129 -155 185 -442 261 -216 58 -256
83 -256 162 0 140 249 151 464 22 32 -19 62 -33 66 -30 12 7 150 202 150 212
0 4 -19 20 -43 34 -111 70 -232 114 -339 124 -34 3 -79 7 -98 9 -19 2 -65 0
-102 -5z"/>
<path d="M11305 10280 c-244 -28 -392 -166 -403 -377 -6 -108 16 -177 76 -244
73 -82 134 -110 377 -175 251 -67 310 -117 259 -215 -24 -47 -82 -69 -184 -69
-128 0 -231 34 -350 115 l-55 37 -63 -68 c-102 -110 -117 -131 -102 -149 21
-26 152 -102 220 -129 110 -43 180 -58 306 -63 254 -12 436 72 512 235 24 51
27 69 27 167 0 100 -2 115 -27 161 -53 101 -174 175 -373 228 -264 71 -308 93
-320 159 -29 155 238 178 468 40 32 -20 62 -31 67 -27 4 5 40 54 79 109 l72
100 -28 23 c-49 40 -185 101 -273 121 -100 23 -202 30 -285 21z"/>
<path d="M16518 10279 c-181 -20 -327 -119 -378 -257 -24 -62 -29 -189 -11
-250 42 -141 144 -208 424 -283 245 -65 287 -90 287 -169 0 -85 -59 -120 -200
-120 -122 0 -219 33 -347 118 -32 21 -57 32 -62 26 -5 -5 -45 -51 -90 -102
l-82 -94 43 -34 c59 -47 207 -119 298 -144 107 -30 302 -38 401 -16 154 34
262 113 315 229 26 55 29 73 29 162 0 81 -4 109 -22 147 -47 104 -168 183
-353 233 -305 83 -350 107 -350 185 0 34 6 47 30 70 76 71 229 60 404 -29 55
-28 100 -49 101 -48 2 4 138 191 147 204 13 16 -83 78 -179 115 -134 52 -273
72 -405 57z"/>
<path d="M4150 10238 c-11 -24 -144 -320 -295 -658 l-274 -615 147 -3 c80 -1
151 -1 157 1 5 3 37 68 70 146 l59 141 290 -2 289 -3 61 -142 60 -143 158 0
c87 0 158 2 158 5 0 10 -573 1290 -583 1303 -7 8 -48 12 -143 12 l-134 0 -20
-42z m158 -726 c-94 -1 -173 -1 -175 2 -3 2 35 95 83 205 l87 201 88 -202 88
-203 -171 -3z"/>
<path d="M9592 9626 c-161 -359 -292 -656 -292 -660 0 -3 69 -6 153 -6 l154 0
61 143 60 142 289 3 290 2 58 -137 c32 -76 61 -141 65 -146 4 -4 77 -6 162 -5
l156 3 -293 655 -292 655 -140 3 -139 3 -292 -655z m516 88 c46 -108 81 -198
79 -200 -2 -3 -81 -3 -174 -2 l-170 3 85 198 c47 108 88 197 91 197 3 0 43
-88 89 -196z"/>
<path d="M817 10263 c-4 -3 -7 -64 -7 -135 l0 -128 210 0 210 0 0 -520 0 -520
155 0 155 0 0 520 0 520 205 0 205 0 0 135 0 135 -563 0 c-310 0 -567 -3 -570
-7z"/>
<path d="M6350 10135 l0 -135 205 0 205 0 0 -520 0 -520 155 0 155 0 0 520 0
520 210 0 211 0 -3 133 -3 132 -567 3 -568 2 0 -135z"/>
<path d="M7717 10263 c-4 -3 -7 -298 -7 -655 l0 -648 150 0 150 0 2 418 3 417
188 -273 c104 -150 192 -270 197 -267 5 3 91 125 192 271 l183 265 3 -416 2
-415 155 0 155 0 -2 653 -3 652 -164 0 -164 0 -178 -273 -178 -274 -127 194
c-70 106 -151 230 -180 276 l-54 82 -158 0 c-87 0 -162 -3 -165 -7z"/>
<path d="M12067 10263 c-4 -3 -7 -64 -7 -135 l0 -128 210 0 210 0 0 -520 0
-520 155 0 155 0 0 520 0 520 205 0 205 0 0 135 0 135 -563 0 c-310 0 -567 -3
-570 -7z"/>
<path d="M13430 9615 l0 -655 525 0 526 0 -3 128 -3 127 -373 3 -373 2 3 133
3 132 323 3 323 2 -3 128 -3 127 -323 3 -323 2 3 128 3 127 368 3 368 2 -3
128 -3 127 -517 3 -518 2 0 -655z"/>
<path d="M14740 9616 l0 -656 155 0 155 0 0 205 0 206 117 -3 117 -3 141 -200
141 -200 177 -3 c97 -1 177 0 177 4 0 3 -73 107 -161 230 -89 124 -160 226
-158 227 2 2 29 16 60 31 69 34 149 114 183 182 56 112 56 271 1 392 -45 99
-152 178 -292 219 -48 13 -122 17 -435 21 l-378 4 0 -656z m746 357 c113 -60
121 -228 16 -300 -50 -33 -118 -43 -292 -43 l-160 0 0 186 0 186 198 -4 c181
-3 200 -5 238 -25z"/>
<path d="M11475 8626 c-218 -54 -362 -273 -328 -497 21 -131 96 -251 201 -318
73 -46 150 -64 256 -59 119 5 201 41 284 125 146 148 172 353 70 545 -87 163
-295 251 -483 204z m225 -105 c73 -28 131 -80 171 -153 33 -61 34 -66 34 -178
0 -101 -3 -120 -23 -158 -36 -67 -98 -129 -161 -159 -75 -37 -200 -40 -273 -6
-66 30 -129 92 -164 160 -26 53 -29 67 -29 163 0 99 2 109 33 172 58 118 153
176 289 177 49 1 90 -5 123 -18z"/>
<path d="M5367 8623 c-4 -3 -7 -197 -7 -430 l0 -423 315 0 315 0 0 45 0 45
-265 0 -265 0 0 145 0 145 233 2 232 3 0 45 0 45 -232 3 -233 2 0 140 0 140
260 0 260 0 0 50 0 50 -303 0 c-167 0 -307 -3 -310 -7z"/>
<path d="M8906 8598 c-7 -18 -93 -208 -191 -423 -97 -214 -179 -396 -182 -403
-4 -10 7 -12 48 -10 l53 3 50 113 50 112 231 0 232 0 50 -112 49 -113 52 -3
c29 -2 52 1 52 5 0 4 -86 200 -192 435 l-193 428 -47 0 c-44 0 -49 -2 -62 -32z
m161 -315 l91 -203 -189 0 c-104 0 -189 3 -189 8 0 19 184 412 190 405 4 -4
48 -99 97 -210z"/>
<path d="M13696 8213 c-104 -230 -191 -426 -194 -435 -4 -15 3 -18 44 -18 l49
0 51 113 50 112 232 0 233 0 51 -112 51 -113 54 0 53 0 -14 33 c-12 28 -331
733 -366 810 -12 24 -19 27 -59 27 l-46 0 -189 -417z m331 79 l92 -207 -186
-3 c-102 -1 -187 -1 -189 1 -5 5 179 417 186 417 3 0 46 -94 97 -208z"/>
<path d="M2680 8190 l0 -430 50 0 50 0 0 378 c0 207 3 401 6 430 l7 52 -57 0
-56 0 0 -430z"/>
<path d="M3220 8190 l0 -430 50 0 50 0 2 346 3 346 274 -346 273 -346 39 0 39
0 0 430 0 430 -50 0 -50 0 -2 -335 -3 -335 -264 335 -264 335 -48 0 -49 0 0
-430z"/>
<path d="M4320 8575 l0 -45 140 0 140 0 2 -382 3 -383 50 0 50 0 3 383 2 382
140 0 140 0 0 45 0 45 -335 0 -335 0 0 -45z"/>
<path d="M6370 8190 l0 -430 50 0 50 0 0 165 0 165 123 0 122 0 124 -165 123
-165 59 0 c32 0 59 3 59 6 0 3 -54 77 -120 165 -66 87 -123 164 -125 172 -4 8
9 17 37 24 197 53 244 327 76 440 -68 45 -122 53 -363 53 l-215 0 0 -430z
m501 308 c88 -52 105 -171 36 -247 -47 -51 -88 -61 -269 -61 l-168 0 0 171 0
171 178 -4 c172 -3 178 -4 223 -30z"/>
<path d="M7443 8448 c4 -95 7 -289 7 -431 l0 -258 48 3 47 3 5 341 5 341 270
-343 270 -344 40 2 40 3 3 428 2 427 -50 0 -50 0 0 -336 c0 -274 -2 -334 -13
-326 -7 6 -127 157 -267 336 l-255 325 -54 1 -54 0 6 -172z"/>
<path d="M9590 8575 l0 -45 138 0 139 0 6 -107 c4 -58 7 -231 7 -385 l0 -278
50 0 50 0 0 385 0 385 145 0 145 0 0 45 0 45 -340 0 -340 0 0 -45z"/>
<path d="M10640 8190 l0 -430 50 0 50 0 0 430 0 430 -50 0 -50 0 0 -430z"/>
<path d="M12410 8190 l0 -430 50 0 50 0 2 346 3 345 270 -343 270 -343 43 -3
42 -3 0 430 0 431 -50 0 -50 0 -2 -337 -3 -337 -264 337 -265 337 -48 0 -48 0
0 -430z"/>
<path d="M14722 8193 l3 -428 290 0 290 0 0 45 0 45 -242 3 -243 2 0 380 0
380 -50 0 -50 0 2 -427z"/>
<path d="M15145 8585 c-35 -34 -34 -93 0 -125 37 -34 90 -33 121 4 51 59 15
146 -61 146 -25 0 -44 -8 -60 -25z m110 -10 c30 -30 32 -64 4 -99 -41 -53
-129 -18 -129 51 0 32 42 73 75 73 14 0 37 -11 50 -25z"/>
<path d="M15170 8525 c0 -25 5 -45 10 -45 6 0 10 7 10 15 0 8 5 15 10 15 6 0
13 -7 16 -15 4 -8 13 -15 21 -15 13 0 13 3 3 15 -10 12 -10 18 0 30 18 21 -4
45 -41 45 -28 0 -29 -2 -29 -45z m50 15 c0 -5 -7 -10 -15 -10 -8 0 -15 5 -15
10 0 6 7 10 15 10 8 0 15 -4 15 -10z"/>
<path d="M4361 7253 l-93 -4 7 -102 c28 -442 100 -945 183 -1297 l27 -115 205
-94 c402 -183 879 -378 1355 -552 l240 -88 2 102 c15 656 57 1241 134 1832 17
127 33 251 36 278 l6 47 -1004 -2 c-552 -1 -1046 -4 -1098 -5z"/>
<path d="M6655 7238 c-13 -55 -77 -537 -104 -783 -54 -482 -78 -824 -88 -1241
l-6 -272 289 -95 c761 -252 1583 -476 2388 -653 129 -28 162 -32 172 -22 25
26 218 378 343 628 150 296 286 589 413 885 141 327 396 981 386 989 -6 5
-515 173 -688 226 -258 80 -687 202 -1005 284 l-290 76 -902 0 -903 0 -5 -22z"/>
<path d="M9060 7219 c335 -106 912 -299 1144 -384 143 -52 262 -95 266 -95 7
0 131 348 130 366 0 6 -53 21 -122 34 -68 12 -235 44 -373 71 l-250 49 -460
-1 -460 -1 125 -39z"/>
<path d="M10535 7236 c100 -23 114 -21 115 12 0 9 -28 12 -107 11 l-108 -1
100 -22z"/>
<path d="M10694 7235 c-4 -14 -5 -28 -3 -30 18 -17 953 -183 1349 -239 496
-71 1162 -139 1179 -120 8 7 123 318 145 392 l7 22 -1335 0 -1336 0 -6 -25z"/>
<path d="M13351 7049 c-40 -116 -71 -212 -70 -214 9 -8 455 -25 664 -25 816 0
1373 118 1591 337 35 35 74 90 74 106 0 4 -492 7 -1092 7 l-1093 0 -74 -211z"/>
<path d="M2568 7151 c-2 -54 -1 -111 2 -125 10 -56 182 -231 388 -395 250
-199 665 -457 1101 -684 131 -68 172 -85 167 -71 -14 45 -58 268 -86 427 -39
229 -66 443 -85 673 -9 104 -18 208 -21 232 l-5 42 -729 0 -729 0 -3 -99z"/>
<path d="M10588 6917 c-37 -105 -64 -195 -60 -199 4 -3 117 -50 252 -103 705
-279 1419 -615 1865 -878 l59 -35 59 112 c116 217 393 831 431 952 6 20 2 21
-101 28 -464 30 -1155 108 -1733 197 -221 34 -667 108 -690 114 -12 4 -30 -38
-82 -188z"/>
<path d="M15530 7063 c-278 -216 -951 -320 -1885 -293 -159 5 -313 9 -341 10
l-50 0 -59 -147 c-89 -224 -210 -494 -333 -739 l-110 -220 81 -49 c246 -146
534 -354 713 -513 300 -267 454 -540 417 -738 -6 -33 -10 -60 -8 -62 4 -4 223
240 326 364 460 551 846 1204 1106 1869 54 138 195 546 191 551 -2 1 -23 -14
-48 -33z"/>
<path d="M10426 6463 c-302 -828 -627 -1553 -1008 -2249 l-39 -72 213 -41
c514 -100 1107 -188 1553 -231 l220 -21 68 73 c312 336 601 700 844 1063 178
268 418 678 409 701 -12 30 -582 321 -961 489 -353 157 -1110 453 -1203 471
-27 5 -27 4 -96 -183z"/>
<path d="M2690 6463 c0 -24 98 -242 220 -488 616 -1244 1591 -2269 2795 -2935
l122 -67 -182 181 c-242 241 -395 426 -582 706 -212 318 -392 667 -548 1065
-60 153 -195 554 -195 580 0 6 -33 27 -72 45 -301 137 -766 382 -1017 537
-186 115 -443 296 -513 361 -16 14 -28 21 -28 15z"/>
<path d="M12686 5552 c-311 -566 -739 -1172 -1133 -1601 l-97 -106 84 -9 c47
-5 306 -9 575 -10 409 -1 516 2 645 17 396 45 647 108 855 215 109 56 218 156
258 235 145 285 -93 658 -689 1085 -106 75 -294 197 -394 255 l-46 26 -58
-107z"/>
<path d="M4580 5390 c0 -6 27 -91 59 -188 394 -1181 1067 -2068 1926 -2541 91
-50 262 -121 291 -121 4 0 -4 12 -18 28 -35 36 -128 182 -167 260 -190 379
-313 940 -361 1652 -5 80 -10 179 -10 220 l-1 75 -387 128 c-461 153 -1026
364 -1319 494 -7 3 -13 0 -13 -7z"/>
<path d="M6464 4553 c33 -832 174 -1449 412 -1810 107 -162 251 -279 399 -326
99 -31 258 -30 370 1 404 116 866 545 1347 1252 132 193 240 369 233 380 -3 6
-15 10 -26 10 -33 0 -748 145 -1009 205 -486 111 -1066 263 -1516 396 -111 32
-205 59 -209 59 -4 0 -5 -75 -1 -167z"/>
<path d="M9306 4016 c-7 -12 -48 -79 -91 -151 -182 -304 -431 -654 -618 -870
-122 -142 -348 -363 -457 -447 -110 -85 -236 -163 -329 -204 -84 -36 -92 -30
79 -61 175 -31 487 -18 790 33 726 122 1494 496 2170 1059 123 101 334 292
403 363 l49 49 -84 7 c-572 47 -1204 125 -1731 215 l-168 28 -13 -21z"/>
<path d="M13586 3979 c-62 -33 -260 -95 -392 -123 -372 -78 -940 -111 -1512
-87 l-284 12 -151 -148 c-462 -452 -920 -787 -1427 -1043 -345 -174 -654 -287
-991 -364 l-104 -23 135 -8 c152 -8 564 8 794 31 1306 129 2518 612 3561 1418
154 119 430 355 415 355 -3 0 -23 -9 -44 -20z"/>
</g>
</svg>
